<svg xmlns="http://www.w3.org/2000/svg" width="325" height="115" viewBox="0 0 325 115" fill="none"><path d="M154.481 14.1936V38.003H147.767V28.7168H138.612V38.003H131.899V14.1936H138.612V23.1389H147.767V14.1936H154.481Z" fill="#00ADE0"></path><path d="M177.609 26.0983C177.609 21.982 174.792 19.2963 171.199 19.2963C167.605 19.2963 164.788 21.982 164.788 26.0983C164.788 30.2146 167.605 32.9002 171.199 32.9002C174.792 32.9002 177.609 30.2146 177.609 26.0983ZM158.008 26.0983C158.008 18.9555 163.604 13.7133 171.199 13.7133C178.793 13.7133 184.389 18.9503 184.389 26.0983C184.389 33.2463 178.793 38.4833 171.199 38.4833C163.604 38.4833 158.008 33.2463 158.008 26.0983Z" fill="#00ADE0"></path><path d="M186.248 35.8596L188.452 30.8911C190.552 32.2856 193.539 33.2411 196.288 33.2411C199.037 33.2411 200.155 32.4561 200.155 31.2992C200.155 27.5237 186.66 30.2817 186.66 21.4345C186.66 17.184 190.12 13.7133 197.174 13.7133C200.258 13.7133 203.445 14.426 205.787 15.7895L203.718 20.7889C201.447 19.5649 199.207 18.9503 197.138 18.9503C194.321 18.9503 193.307 19.9058 193.307 21.0937C193.307 24.7348 206.771 22.013 206.771 30.7879C206.771 34.9403 203.311 38.4781 196.257 38.4781C192.36 38.4781 188.493 37.4245 186.253 35.8596" fill="#00ADE0"></path><path d="M224.467 23.0046C224.467 20.7941 223.077 19.5029 220.296 19.5029H216.569V26.4753H220.296C223.077 26.4753 224.467 25.1841 224.467 23.0046ZM231.248 23.0046C231.248 28.4121 227.18 31.7795 220.698 31.7795H216.564V38.003H209.85V14.1936H220.703C227.18 14.1936 231.253 17.561 231.253 23.0046" fill="#00ADE0"></path><path d="M241.215 14.1936H234.502V38.003H241.215V14.1936Z" fill="#00ADE0"></path><path d="M251.049 19.5339H243.759V14.1936H265.023V19.5339H257.763V38.003H251.049V19.5339Z" fill="#00ADE0"></path><path d="M280.279 28.4121L277.225 20.7941L274.172 28.4121H280.279ZM282.245 33.3805H272.205L270.342 38.0081H263.494L273.971 14.1988H280.582L291.096 38.0081H284.109L282.245 33.3805Z" fill="#00ADE0"></path><path d="M292.991 14.1936H299.704V32.6626H311.032V38.003H292.991V14.1936Z" fill="#00ADE0"></path><path d="M131.899 48.0225H138.612V66.4967H149.94V71.8371H131.899V48.0225Z" fill="#0354AB"></path><path d="M159.295 48.0225H152.581V71.8371H159.295V48.0225Z" fill="#0354AB"></path><path d="M186.66 48.0225V71.8371H181.135L170.653 59.1474V71.8371H164.073V48.0225H169.602L180.08 60.7123V48.0225H186.66Z" fill="#0354AB"></path><path d="M202.358 66.4606C206.395 66.4606 209.108 64.0435 209.108 59.9272C209.108 55.8109 206.395 53.3938 202.358 53.3938H198.121V66.4554H202.358V66.4606ZM191.402 48.0225H202.626C210.493 48.0225 215.884 52.614 215.884 59.9272C215.884 67.2405 210.493 71.8319 202.626 71.8319H191.402V48.0174V48.0225Z" fill="#0354AB"></path><path d="M237.792 59.9324C237.792 55.8161 234.975 53.1304 231.381 53.1304C227.788 53.1304 224.971 55.8161 224.971 59.9324C224.971 64.0487 227.788 66.7343 231.381 66.7343C234.975 66.7343 237.792 64.0487 237.792 59.9324ZM218.191 59.9324C218.191 52.7896 223.787 47.5526 231.381 47.5526C238.976 47.5526 244.572 52.7896 244.572 59.9324C244.572 67.0752 238.976 72.3122 231.381 72.3122C223.787 72.3122 218.191 67.0752 218.191 59.9324Z" fill="#0354AB"></path><path d="M247.893 61.2236V48.0277H254.607V61.0221C254.607 65.1074 256.301 66.7395 259.117 66.7395C261.934 66.7395 263.592 65.1074 263.592 61.0221V48.0277H270.203V61.2236C270.203 68.3354 266.063 72.3122 259.045 72.3122C252.028 72.3122 247.888 68.3354 247.888 61.2236" fill="#0354AB"></path><path d="M285.196 53.3319H281.468V60.3042H285.196C287.976 60.3042 289.366 59.0131 289.366 56.8336C289.366 54.654 287.976 53.3319 285.196 53.3319ZM281.463 65.5103V71.8371H274.749V48.0225H285.602C292.079 48.0225 296.147 51.3899 296.147 56.8336C296.147 60.3352 294.453 62.9228 291.503 64.3534L296.626 71.8371H289.438L285.134 65.5103H281.463Z" fill="#0354AB"></path><path d="M318.219 59.9324C318.219 55.8161 315.408 53.1304 311.809 53.1304C308.21 53.1304 305.399 55.8161 305.399 59.9324C305.399 64.0487 308.215 66.7343 311.809 66.7343C315.403 66.7343 318.219 64.0487 318.219 59.9324ZM298.618 59.9324C298.618 52.7896 304.215 47.5526 311.809 47.5526C319.403 47.5526 325 52.7896 325 59.9324C325 67.0752 319.403 72.3122 311.809 72.3122C304.215 72.3122 298.618 67.0752 298.618 59.9324Z" fill="#0354AB"></path><path d="M148.307 94.4999L145.254 86.8768L142.201 94.4999H148.307ZM150.274 99.4684H140.234L138.37 104.096H131.523L142 80.2814H148.611L159.125 104.096H152.138L150.274 99.4684Z" fill="#0354AB"></path><path d="M183.777 80.2814L173.603 104.091H166.992L156.849 80.2814H164.109L170.555 95.7911L177.13 80.2814H183.777Z" fill="#0354AB"></path><path d="M204.222 98.8899V104.091H185.167V80.2814H203.785V85.4874H191.814V89.5004H202.358V94.536H191.814V98.8899H204.222Z" fill="#0354AB"></path><path d="M207.95 80.2814H214.664V98.7505H225.991V104.091H207.95V80.2814Z" fill="#0354AB"></path><path d="M242.842 94.4999L239.789 86.8768L236.736 94.4999H242.842ZM244.809 99.4684H234.769L232.906 104.096H226.058L236.535 80.2814H243.146L253.66 104.096H246.673L244.809 99.4684Z" fill="#0354AB"></path><path d="M266.001 85.5856H262.274V92.558H266.001C268.782 92.558 270.172 91.2668 270.172 89.0873C270.172 86.9077 268.782 85.5856 266.001 85.5856ZM262.274 97.764V104.091H255.56V80.2762H266.413C272.89 80.2762 276.958 83.6436 276.958 89.0873C276.958 92.5889 275.264 95.1765 272.314 96.6071L277.436 104.091H270.249L265.945 97.764H262.274Z" fill="#0354AB"></path><path d="M110.295 36.0352V79.6565H78.0537L78.1051 79.6048H78.0537L78.0691 74.5021C78.0536 70.5252 78.0176 66.5639 78.0434 62.5871C78.0537 60.0512 77.8683 57.5256 77.1887 55.0827C73.8832 43.209 63.7146 35.4619 51.193 35.4774C47.4808 35.4878 43.7634 35.4413 40.0512 35.4103H35.021C35.0364 28.6083 35.1291 21.7909 35.0467 14.989C34.9489 6.99913 42.0592 -0.174672 49.8955 0.0267522C54.2307 0.135211 58.5659 0.212682 62.8702 0.0164227C71.1802 -0.39159 78.7024 6.85968 78.3574 15.4486C78.136 21.2228 78.3059 27.0073 78.3317 32.7918C78.3317 35.0487 79.4644 36.0404 81.6629 36.0404H110.295V36.0352Z" fill="#0354AB"></path><path d="M73.1675 74.4246V79.6565C69.3318 79.6152 65.4909 79.6048 61.6551 79.5274C52.0271 79.3414 44.4842 75.2458 39.1759 67.1733C36.4265 62.9589 35.0827 58.259 35.0673 53.2079C35.0518 48.9935 35.0776 44.7791 35.093 40.5647H40.0203C43.7995 40.5388 47.5683 40.5647 51.3474 40.4562C62.9629 40.1412 73.2345 49.7062 73.1675 62.334C73.1418 66.3625 73.1675 70.391 73.1675 74.4194M78.0537 79.6565V79.6048L78.0691 74.5021C78.0536 70.5252 78.0176 66.5639 78.0434 62.5871C78.0537 60.0512 77.8735 57.5256 77.1887 55.0827C73.8832 43.209 63.7146 35.4619 51.193 35.4774C47.4808 35.4878 43.7634 35.4361 40.0512 35.4103H35.021C28.7293 35.4361 22.417 35.4619 16.1098 35.4774C7.02241 35.5032 0.148917 42.2639 0.123174 51.3951C0.0974305 56.1518 -0.247531 60.924 0.344567 65.6497C1.22499 72.7564 7.82561 78.7165 15.0132 78.8456C20.4141 78.9386 25.8151 78.8559 31.2264 78.8714C33.8625 78.8818 34.7532 79.7959 34.7944 82.4506C34.8871 88.9633 34.4495 95.476 35.0055 101.963C35.5976 108.873 41.8533 114.725 48.7422 114.895C53.8394 115.03 58.9469 115.04 64.0595 114.895C71.6332 114.684 77.9661 107.975 78.0331 100.202C78.0845 93.3482 78.0485 86.5049 78.0588 79.6461" fill="#00ADE0"></path></svg>